<svg version="1.1" id="Layer_1" xmlns="http://www.w3.org/2000/svg" xmlns:xlink="http://www.w3.org/1999/xlink" x="0px" y="0px"
	 width="100%" viewBox="0 0 718 531" enable-background="new 0 0 718 531" xml:space="preserve">
<path fill="#FEFEFE" opacity="1.000000" stroke="none" 
	d="
M441.000000,532.000000 
	C294.000031,532.000000 147.500046,532.000000 1.000059,532.000000 
	C1.000039,355.000061 1.000039,178.000122 1.000020,1.000130 
	C240.333237,1.000087 479.666473,1.000087 718.999756,1.000043 
	C718.999878,177.999863 718.999878,354.999725 718.999939,531.999756 
	C626.500000,532.000000 534.000000,532.000000 441.000000,532.000000 
M321.003540,84.761429 
	C322.793182,75.347595 330.758087,71.079918 339.218811,75.380104 
	C342.715027,77.157059 346.222870,79.454872 348.834290,82.326248 
	C356.448730,90.698578 363.764313,99.357452 370.897614,108.147026 
	C375.104279,113.330452 380.197479,115.698875 386.817078,115.954048 
	C396.464569,116.325951 406.106781,117.067429 415.723572,117.952164 
	C431.946686,119.444672 444.036957,130.367874 447.626312,146.781586 
	C434.380219,148.702225 421.159882,150.619141 406.973389,152.676132 
	C408.437592,156.222961 409.107971,158.811096 410.466034,160.965836 
	C415.699982,169.270111 421.391571,177.291580 426.481171,185.680191 
	C441.891846,211.079727 455.425995,237.363037 463.411163,266.188141 
	C467.176056,279.778778 465.860474,292.507843 457.586029,304.256439 
	C456.879303,305.259857 456.978302,306.830750 456.702972,308.137970 
	C458.083313,307.988098 459.654816,308.217896 460.816254,307.633179 
	C496.661194,289.589447 516.985596,260.644592 520.941833,220.665924 
	C523.411316,195.711365 516.024597,172.988571 503.725189,151.583496 
	C491.315491,129.986557 474.444580,112.056053 457.215759,94.369720 
	C453.196106,90.243340 449.355255,85.652252 446.618073,80.628792 
	C441.229614,70.739540 446.027557,61.289711 457.076233,59.205429 
	C465.080048,57.695549 472.963470,58.505375 480.645599,61.403763 
	C482.549408,62.122059 484.717224,62.140625 487.973450,62.681942 
	C486.546539,59.116302 486.171204,56.588936 484.765381,54.940086 
	C478.638245,47.753551 473.062469,39.736607 465.738312,33.996643 
	C441.065887,14.660842 411.629822,8.423126 381.238068,6.045137 
	C352.076813,3.763422 323.884644,9.314841 296.267853,18.249134 
	C275.422363,24.992853 256.360413,35.045441 240.362045,50.173901 
	C207.905289,80.865845 194.385406,118.806389 198.907776,162.999222 
	C203.166672,204.617218 223.034012,237.795975 255.460419,263.763184 
	C275.799377,280.050751 299.297302,289.565002 324.545868,294.551697 
	C339.132446,297.432617 353.980194,297.325012 368.595306,293.154846 
	C385.600189,288.302795 396.253448,276.743286 397.456085,260.245117 
	C397.911804,253.993378 397.442505,247.566345 396.541626,241.342728 
	C393.087921,217.483185 382.868683,196.278198 370.133331,176.138000 
	C366.791443,170.852951 364.253265,170.821991 360.357605,175.894363 
	C351.076477,187.979004 341.803192,200.069641 331.865936,213.018951 
	C328.383301,206.679184 325.564697,200.854324 322.116333,195.429840 
	C316.624969,186.791641 316.782715,178.509140 321.573639,169.553802 
	C326.984283,159.440048 331.673950,148.937881 336.588654,138.562714 
	C338.993713,133.485474 339.089111,128.238098 336.757690,123.119644 
	C334.483063,118.125900 331.692993,113.355736 329.601990,108.292183 
	C326.515228,100.817360 323.847046,93.169701 321.003540,84.761429 
M371.486664,374.878784 
	C361.618011,370.136719 351.010040,371.159851 340.580597,371.036865 
	C332.355133,370.939819 330.187103,373.023407 330.108978,381.387573 
	C329.950317,398.383942 329.983368,415.383270 330.093597,432.380371 
	C330.135345,438.817780 333.099518,440.878784 340.968140,440.511719 
	C347.002411,440.230225 349.075104,437.792450 348.820190,431.506012 
	C348.713379,428.873108 348.424072,426.130951 348.993469,423.613953 
	C349.904938,419.585052 352.502960,418.746368 355.481445,421.521545 
	C357.364594,423.276123 358.417450,425.888153 360.058197,427.943604 
	C363.320892,432.030945 366.402283,436.354828 370.203857,439.886353 
	C372.550507,442.066345 384.495605,440.537384 384.634613,438.437683 
	C384.846832,435.230896 382.949310,431.856842 381.805725,428.603607 
	C381.429169,427.532349 380.601501,426.622620 380.000427,425.626801 
	C376.206909,419.341980 376.368469,413.198364 379.992920,406.765350 
	C387.365448,393.679901 384.728058,383.499451 371.486664,374.878784 
M209.912476,433.827637 
	C209.966675,415.205292 210.048248,396.582947 210.056046,377.960602 
	C210.058014,373.252502 207.835236,371.327301 202.305130,370.886688 
	C195.686264,370.359314 192.504532,371.941620 191.971573,376.674438 
	C191.527222,380.620361 192.113525,384.682037 191.673691,388.628967 
	C191.439301,390.732422 190.516006,393.849304 189.009888,394.529388 
	C182.949997,397.265686 176.395294,398.055298 170.243607,394.868286 
	C168.625641,394.030029 167.432251,391.308960 167.106873,389.281891 
	C166.585419,386.033173 167.019516,382.640137 166.926743,379.311554 
	C166.758087,373.258392 163.943588,370.926178 157.041626,370.992615 
	C150.968842,371.051056 148.329590,373.431824 148.294250,379.333435 
	C148.185562,397.487518 148.209564,415.642365 148.135193,433.796722 
	C148.116501,438.359741 150.293381,440.563354 154.824219,440.521179 
	C156.489868,440.505676 158.156250,440.490295 159.821442,440.520905 
	C164.383789,440.604736 166.542999,438.165131 166.725357,433.818634 
	C166.899857,429.659180 166.935532,425.493530 167.004837,421.330139 
	C167.065292,417.697540 168.823410,415.507690 172.328110,414.458282 
	C184.070007,410.942352 190.986786,415.872284 191.192215,428.005707 
	C191.209122,429.004425 191.168549,430.003998 191.168289,431.003174 
	C191.166641,437.385132 192.597900,439.496918 197.622467,440.536469 
	C203.272308,441.705414 207.519348,439.653625 209.912476,433.827637 
M451.757416,440.026276 
	C456.777313,440.026276 461.797211,440.026276 467.383148,440.026276 
	C459.597290,418.455078 452.326569,398.347504 445.087372,378.228577 
	C443.294464,373.245880 439.846710,370.835876 434.529816,370.800201 
	C428.978912,370.762970 423.483002,371.123352 421.198303,377.212097 
	C414.092499,396.149048 407.160492,415.152802 400.419922,434.222137 
	C399.868561,435.781921 400.667542,439.082581 401.880676,439.791229 
	C408.280914,443.529785 417.538879,440.312744 421.232422,433.675568 
	C422.085236,432.143127 423.159912,430.431213 424.594086,429.576874 
	C431.286072,425.590607 441.291809,428.353485 445.642334,434.836609 
	C446.969208,436.813934 449.190765,438.190857 451.757416,440.026276 
M41.583027,371.427368 
	C39.601814,371.367126 37.620842,371.266174 35.639339,371.254303 
	C29.861513,371.219635 26.584997,373.731964 24.545443,379.536896 
	C18.389433,397.058014 11.539411,414.334961 4.994923,431.720276 
	C4.083848,434.140533 3.369401,436.634827 2.389996,439.626068 
	C6.667241,439.953552 10.282782,440.424377 13.902418,440.458282 
	C18.393534,440.500366 21.751348,438.425507 24.110205,434.478943 
	C29.449818,425.545288 43.728062,425.536499 48.836670,434.520905 
	C51.147903,438.585632 54.547291,440.631134 58.935051,440.685883 
	C62.513466,440.730530 66.102081,439.957886 70.945747,439.403442 
	C63.106018,418.394043 55.619774,398.035370 47.810474,377.801361 
	C46.894474,375.428009 44.199482,373.741272 41.583027,371.427368 
M103.780861,370.284821 
	C102.299706,370.506927 100.808273,370.675842 99.339058,370.959808 
	C90.068390,372.751678 83.024040,379.922821 82.016945,388.558594 
	C80.914085,398.015564 85.981178,406.622681 95.040665,410.397491 
	C98.400681,411.797455 102.032471,412.595490 105.283432,414.191345 
	C108.036850,415.542969 110.419914,417.649048 113.238029,419.609924 
	C108.393402,424.191223 104.289658,424.129852 100.012810,421.387329 
	C98.336777,420.312561 96.796753,418.998230 95.047722,418.070160 
	C90.583160,415.701263 86.126343,417.527100 81.830688,422.888794 
	C78.618759,426.897858 80.981186,429.573761 83.570076,432.361847 
	C92.913269,442.423981 104.387756,444.125641 116.956856,440.458527 
	C125.644531,437.923859 131.526932,430.318542 132.037292,421.916504 
	C132.620270,412.318848 128.565323,405.440247 119.569847,401.212311 
	C115.671844,399.380280 111.501442,398.113434 107.659454,396.182617 
	C105.733444,395.214691 104.266373,393.333618 102.374435,391.675049 
	C106.795929,388.470520 109.700439,390.392090 112.382141,392.310577 
	C115.898155,394.825867 119.099945,394.637268 122.388451,392.027466 
	C123.686371,390.997406 125.050224,390.026733 126.477562,389.188171 
	C129.910217,387.171417 129.822647,384.764221 127.725891,381.744446 
	C122.112885,373.660492 114.176804,370.373016 103.780861,370.284821 
M556.537109,370.961884 
	C553.775452,371.506531 551.033508,372.209351 548.247253,372.557312 
	C544.420471,373.035248 543.125977,374.889313 543.158081,378.820953 
	C543.257263,390.977264 542.913208,403.136871 542.774902,415.295593 
	C542.702942,421.624054 542.363220,427.980164 542.862183,434.266846 
	C543.024841,436.315704 545.402344,439.828064 546.862427,439.878082 
	C559.797974,440.320862 572.755005,440.135284 585.680969,440.135284 
	C586.009827,438.389587 586.282715,437.105347 586.487549,435.810303 
	C586.721130,434.333374 586.972778,432.852448 587.079712,431.363464 
	C587.534607,425.031921 586.398621,423.519135 580.136902,423.224304 
	C576.174988,423.037720 572.174255,423.385315 568.206970,423.696960 
	C565.118042,423.939636 562.812256,423.127930 562.379333,419.799561 
	C561.925964,416.313232 563.850342,414.370483 567.214111,414.255554 
	C569.851196,414.165466 572.504028,414.754272 575.154907,414.812592 
	C582.228027,414.968201 584.956482,412.470917 585.002441,405.997772 
	C585.055054,398.582367 582.487366,395.944977 575.191956,396.026550 
	C573.363708,396.047028 571.462708,396.655121 569.728027,396.315002 
	C567.008850,395.781830 564.402710,394.671814 561.748718,393.806152 
	C561.765015,393.018951 561.781311,392.231781 561.797607,391.444580 
	C565.169922,390.648407 568.506897,389.577820 571.925049,389.137207 
	C575.029297,388.737061 578.237427,389.212311 581.371216,388.954163 
	C584.781555,388.673187 586.860474,386.813965 586.845520,383.114594 
	C586.837463,381.117096 586.957031,379.119446 586.991211,377.121368 
	C587.045471,373.953979 585.615723,371.994446 582.333435,371.852478 
	C574.028992,371.493286 565.720947,371.215912 556.537109,370.961884 
M713.959351,412.948608 
	C711.661987,409.967987 709.890442,406.227753 706.942505,404.187073 
	C702.656189,401.220032 697.473145,399.573700 692.767578,397.177460 
	C690.002197,395.769257 687.420959,393.999451 684.756897,392.392273 
	C685.039124,391.585358 685.321350,390.778442 685.603577,389.971527 
	C688.446594,390.358887 691.672974,390.015259 694.062256,391.267975 
	C701.847473,395.349915 704.769165,394.936920 710.592468,387.883820 
	C712.768005,385.248932 713.029907,382.463318 710.384277,380.427948 
	C706.078491,377.115417 701.732239,373.390839 696.770935,371.489868 
	C685.824219,367.295410 672.819702,372.165405 668.043457,381.280151 
	C661.610718,393.556305 667.436584,406.448761 681.603149,411.839203 
	C686.673157,413.768372 691.501038,416.334106 696.989807,418.862885 
	C690.395447,424.341766 687.317261,424.480316 681.639221,420.436127 
	C680.692078,419.761505 679.842896,418.936371 678.854675,418.334747 
	C674.559448,415.719910 668.859924,417.721222 664.640381,423.118011 
	C661.335205,427.345184 664.555054,429.859680 667.041565,432.435822 
	C675.995789,441.712830 686.899109,444.183838 699.070801,440.769470 
	C711.993347,437.144501 717.538086,426.886719 713.959351,412.948608 
M506.198120,438.919067 
	C507.061615,437.718414 508.284637,436.638489 508.734528,435.298950 
	C515.128235,416.261261 521.488831,397.211578 527.676514,378.106201 
	C529.064270,373.821289 527.152954,371.426697 522.708801,370.895111 
	C513.350525,369.775635 509.410583,372.539398 506.582367,381.668121 
	C503.610931,391.259216 500.365143,400.765320 496.778625,411.714691 
	C492.857788,400.063446 489.455566,390.009216 486.092438,379.941986 
	C483.227386,371.365723 479.526886,369.291687 470.596405,371.335571 
	C465.953613,372.398193 464.632660,374.382294 466.103607,378.833191 
	C472.352173,397.740540 478.589722,416.653809 485.176025,435.444122 
	C485.895203,437.495911 488.736450,439.993713 490.766602,440.159058 
	C495.631195,440.555359 500.598907,439.685211 506.198120,438.919067 
M297.436035,415.266510 
	C297.410614,409.605988 297.455505,403.944061 297.341736,398.285309 
	C297.202911,391.379333 299.376221,389.139587 306.463623,389.140472 
	C312.273895,389.141235 314.383759,387.058624 314.736145,380.974915 
	C315.083282,374.981598 312.638580,371.284760 307.355927,371.176361 
	C294.702545,370.916748 282.039764,371.009460 269.382141,371.117859 
	C265.006439,371.155334 262.657623,373.674805 262.597839,378.084229 
	C262.570862,380.076141 262.724518,382.079102 262.928192,384.063507 
	C263.271484,387.408783 265.231262,389.467804 268.553955,389.056183 
	C277.501251,387.947693 278.919220,392.417572 278.842010,400.197113 
	C278.739594,410.524231 278.698364,420.852661 278.734711,431.180176 
	C278.759918,438.334717 281.567719,440.899048 288.947601,440.793671 
	C295.382019,440.701843 297.631348,437.989014 297.488464,430.696320 
	C297.393890,425.868835 297.441284,421.038544 297.436035,415.266510 
M398.082672,486.345123 
	C397.559967,484.597351 396.931763,482.873138 396.535858,481.097107 
	C395.634308,477.052490 393.483856,474.583069 389.067383,474.496216 
	C384.589569,474.408173 382.546570,477.028656 381.393677,480.912231 
	C380.087799,485.311066 378.645111,489.669250 376.961243,494.996185 
	C374.771057,489.802917 373.115540,485.564667 371.215302,481.439117 
	C367.651123,473.701141 365.212067,473.047882 357.770142,477.755493 
	C360.943634,489.707916 364.065521,501.747070 367.371185,513.735596 
	C368.295837,517.088989 370.744080,518.826538 374.372833,519.096985 
	C380.672760,519.566528 383.095917,517.705139 384.899872,511.125580 
	C385.863770,507.610016 387.317963,504.228912 388.550873,500.787109 
	C389.016724,500.899780 389.482605,501.012451 389.948486,501.125122 
	C391.283264,505.387939 392.562622,509.669128 393.969269,513.908142 
	C395.238403,517.732788 398.177277,519.335205 402.016174,519.392273 
	C405.580414,519.445374 408.938751,518.454041 410.011383,514.720703 
	C413.355682,503.080719 416.514984,491.383759 419.483704,479.642578 
	C420.165558,476.945679 418.930573,475.066223 415.522797,474.750702 
	C408.689362,474.117981 406.311279,475.991333 404.255737,484.276611 
	C403.474701,487.424896 402.427216,490.507050 401.501129,493.619354 
	C401.125763,493.493042 400.750397,493.366699 400.375031,493.240387 
	C399.684998,491.197205 398.994934,489.154053 398.082672,486.345123 
M624.267700,394.114258 
	C624.290771,389.287323 624.420593,384.457977 624.309998,379.634094 
	C624.171387,373.584839 621.834412,371.133850 616.404602,370.992798 
	C608.973450,370.799774 605.535400,373.189178 605.502197,379.462708 
	C605.406006,397.605072 605.598389,415.749084 605.707214,433.892303 
	C605.730896,437.842499 607.709900,440.297638 611.731567,440.353363 
	C622.381042,440.500824 633.038269,440.622040 643.679810,440.316681 
	C645.537964,440.263397 648.163879,438.502502 649.018005,436.813568 
	C652.880676,429.175781 649.006714,423.175598 640.577576,423.155151 
	C638.247253,423.149475 635.912903,423.078522 633.587280,423.185730 
	C626.233887,423.524689 624.132507,421.555054 624.126343,414.002350 
	C624.121155,407.677612 624.222412,401.352783 624.267700,394.114258 
M65.943459,501.493408 
	C65.948967,504.991913 65.996292,508.490967 65.948830,511.988739 
	C65.896034,515.879211 66.682930,518.987183 71.493752,519.157776 
	C75.972412,519.316589 78.762405,517.941772 79.164581,512.849304 
	C79.299736,511.138000 81.163696,508.321503 82.397194,508.232910 
	C84.197899,508.103546 86.331375,509.750732 87.959450,511.084412 
	C89.032936,511.963776 89.193153,513.933777 90.248131,514.865173 
	C92.174057,516.565308 94.301933,518.617249 96.641151,519.105042 
	C98.968140,519.590271 101.991241,518.854309 104.012810,517.563477 
	C104.740967,517.098511 103.248337,513.474548 103.121780,511.272003 
	C102.961067,508.475220 102.156441,505.069427 103.393463,502.961395 
	C106.884171,497.012695 107.026451,490.971100 105.714813,484.636688 
	C104.463020,478.591339 101.460823,475.468018 95.258751,475.143707 
	C86.986473,474.711060 78.672058,475.006500 70.377426,475.116119 
	C66.963852,475.161255 65.920135,477.410645 65.939827,480.504883 
	C65.982239,487.168335 65.946213,493.832306 65.943459,501.493408 
M671.985718,508.495972 
	C669.038208,508.869476 666.501160,510.144073 667.024048,513.434204 
	C667.329529,515.356323 669.041260,518.482056 670.330017,518.591248 
	C679.230408,519.345276 688.211548,519.981934 697.114319,519.557495 
	C702.402649,519.305359 705.579590,513.870972 705.966370,507.306122 
	C706.441772,499.237976 704.823730,495.565582 698.932495,493.601990 
	C694.884766,492.252838 690.489136,491.983429 686.313477,490.966644 
	C684.325867,490.482666 682.488647,489.381378 680.583313,488.559723 
	C680.700256,487.941223 680.817261,487.322723 680.934265,486.704254 
	C683.794922,486.315674 686.648132,485.852936 689.518738,485.561981 
	C691.816650,485.329071 694.135010,485.283997 696.445679,485.192749 
	C699.965271,485.053772 702.062012,483.515930 702.136108,479.738800 
	C702.216675,475.631958 699.472046,474.643036 696.251465,474.611145 
	C689.936462,474.548553 683.603027,474.505096 677.306580,474.910492 
	C670.286865,475.362396 667.337158,478.504944 666.470947,485.520721 
	C665.370300,494.435028 667.711243,499.959381 674.229248,501.867767 
	C677.965759,502.961761 682.145264,502.467102 685.981567,503.328064 
	C687.864441,503.750610 689.419983,505.631500 691.123718,506.852417 
	C689.327881,507.710175 687.549683,509.243164 685.732666,509.290649 
	C681.432312,509.402954 677.113525,508.809509 671.985718,508.495972 
M650.973572,481.044800 
	C650.599609,476.383881 648.189270,474.219727 643.419678,474.594208 
	C638.524841,474.978485 636.978577,477.861298 637.014709,482.322479 
	C637.069946,489.139465 637.101257,495.961273 636.904480,502.774170 
	C636.757263,507.868317 634.082275,510.179504 629.313232,509.809662 
	C624.934387,509.470123 622.712158,507.032562 622.622742,502.705048 
	C622.471741,495.392029 622.404297,488.077301 622.295471,480.763397 
	C622.233887,476.625183 620.050720,474.786102 615.991699,474.806580 
	C612.016052,474.826599 609.467407,476.619141 609.466003,480.669098 
	C609.462524,490.472198 609.475037,500.289520 610.002380,510.073029 
	C610.295227,515.506226 614.469116,519.440491 619.651062,519.876953 
	C624.942566,520.322693 630.282898,520.638123 635.581970,520.449768 
	C646.279541,520.069458 650.417297,515.727234 650.729431,504.883392 
	C650.949463,497.238647 650.919006,489.586700 650.973572,481.044800 
M229.418671,503.463501 
	C229.429352,506.457306 229.475540,509.451477 229.442398,512.444763 
	C229.392181,516.981079 231.433640,519.087891 236.126602,518.981812 
	C244.272079,518.797729 252.429138,519.052185 260.569366,518.773132 
	C262.122314,518.719971 264.634491,517.274658 264.898804,516.074158 
	C265.270172,514.387390 264.457458,511.175507 263.260712,510.652130 
	C260.062286,509.253540 256.401978,508.871613 252.900650,508.216888 
	C249.639130,507.606964 246.346039,507.165985 243.066833,506.650635 
	C242.968918,505.856842 242.870987,505.063049 242.773056,504.269257 
	C244.997070,503.364929 247.152878,502.140198 249.464630,501.648071 
	C251.692322,501.173798 254.232849,501.932373 256.351654,501.257233 
	C258.079895,500.706543 260.669189,498.762512 260.597748,497.573181 
	C260.475952,495.545685 258.981201,493.044922 257.284607,491.832245 
	C255.749130,490.734741 253.123337,491.286102 251.070740,490.753937 
	C249.011215,490.219971 247.065918,489.245392 245.070572,488.463959 
	C245.216309,487.745178 245.362045,487.026367 245.507782,486.307587 
	C250.075180,486.008148 254.646027,485.752960 259.208862,485.395172 
	C262.854584,485.109375 265.865051,483.891541 265.637756,479.483398 
	C265.422882,475.314789 262.425751,474.480011 258.979950,474.468414 
	C251.661591,474.443756 244.341919,474.378357 237.025009,474.484070 
	C231.447235,474.564606 229.484131,476.480743 229.390869,482.016815 
	C229.276031,488.833954 229.398590,495.655121 229.418671,503.463501 
M544.029968,490.017242 
	C536.407104,490.200195 535.951233,489.789673 535.643372,482.503998 
	C535.608276,481.674896 535.554749,480.845398 535.473572,480.019684 
	C535.062561,475.841675 532.412781,474.427765 528.594543,474.488922 
	C524.620300,474.552643 522.305664,476.441559 522.314697,480.548309 
	C522.338440,491.359680 522.408386,502.171265 522.528625,512.981995 
	C522.577209,517.350830 525.093750,519.118469 529.274048,519.147644 
	C533.823608,519.179321 535.377686,516.490845 535.594543,512.507812 
	C535.684570,510.854004 535.532349,509.184235 535.668396,507.536407 
	C535.936401,504.292297 537.591858,501.983612 541.010315,502.279999 
	C544.391357,502.573181 548.291321,502.843475 548.024475,507.983124 
	C547.947327,509.469055 548.174133,510.970764 548.260864,512.465271 
	C548.507874,516.723206 550.258240,519.287415 555.021118,519.225525 
	C559.938599,519.161621 561.242249,516.386047 561.222595,512.124146 
	C561.176575,502.143616 561.184753,492.162598 561.234863,482.182068 
	C561.255432,478.085999 560.423218,474.886719 555.361938,474.796021 
	C550.277893,474.704926 548.922974,476.329315 548.087097,482.094727 
	C547.700562,484.761139 545.971130,487.232880 544.029968,490.017242 
M160.845779,518.723267 
	C161.696075,517.738220 163.474686,516.425964 163.259857,515.816406 
	C158.809692,503.190155 154.313354,490.570740 149.294342,478.165161 
	C148.593033,476.431732 144.919205,474.649414 142.946106,474.959106 
	C139.509415,475.498383 134.475281,476.802826 133.347534,479.267517 
	C127.642342,491.736328 122.980362,504.682404 117.946991,517.475342 
	C125.957069,520.082336 129.536163,519.447632 134.044479,514.750671 
	C139.065277,509.519836 143.546661,509.307617 148.530411,514.580627 
	C151.779831,518.018616 155.362534,519.683716 160.845779,518.723267 
M171.624832,479.177551 
	C175.883270,491.028717 179.982315,502.941010 184.488281,514.697327 
	C186.026245,518.709900 189.969864,519.833252 194.016983,519.774231 
	C197.659851,519.721008 200.200943,518.054688 201.564545,514.419983 
	C205.465088,504.022766 209.602203,493.714386 213.524582,483.325134 
	C214.425568,480.938660 214.838577,478.367981 215.465469,475.923645 
	C205.491806,472.985107 201.626266,475.295959 198.961639,484.448914 
	C197.513184,489.424255 195.265564,494.166901 193.378403,499.014526 
	C191.370804,496.687042 190.608994,494.682312 189.871170,492.668793 
	C188.160080,487.999237 186.882263,483.111725 184.650482,478.706970 
	C181.814301,473.109344 174.260315,473.159088 171.624832,479.177551 
M470.332336,484.172821 
	C470.933868,484.430542 471.514923,484.837769 472.139984,484.923248 
	C480.135223,486.016541 481.095062,487.088135 481.193939,494.940094 
	C481.271393,501.094635 481.405609,507.248474 481.528442,513.402344 
	C481.622772,518.128479 484.823059,519.050171 488.648682,519.147461 
	C492.752319,519.251831 494.183807,516.884888 494.225983,513.148560 
	C494.291687,507.325470 494.374146,501.501495 494.550659,495.680939 
	C494.800079,487.458344 494.812531,487.347168 502.710358,485.455597 
	C506.217590,484.615601 507.952393,482.667908 507.724731,479.181915 
	C507.484497,475.504120 504.937134,474.770477 501.746063,474.797485 
	C493.093689,474.870728 484.440186,474.798370 475.787323,474.829102 
	C469.192749,474.852509 467.797577,476.913422 470.332336,484.172821 
M38.983707,495.738892 
	C39.145653,487.627167 39.792694,487.107819 47.458050,484.801971 
	C49.014843,484.333649 50.838791,481.542267 50.794785,479.867706 
	C50.750874,478.196808 48.570179,475.215424 47.233330,475.162628 
	C37.094776,474.762360 26.926283,474.759979 16.787746,475.158539 
	C15.464873,475.210510 13.305401,478.230743 13.268992,479.913696 
	C13.232841,481.584808 15.085763,484.384460 16.633226,484.816650 
	C23.902411,486.846802 24.870348,487.735870 24.957691,495.308838 
	C25.026800,501.300659 24.895956,507.306305 25.285275,513.277710 
	C25.466246,516.053406 26.467068,519.564819 30.232368,518.790039 
	C33.639309,518.088989 38.282681,517.989197 38.505367,512.656433 
	C38.727570,507.335297 38.832088,502.009186 38.983707,495.738892 
M294.172211,504.717987 
	C293.993225,502.408875 293.711975,500.102295 293.655304,497.790192 
	C293.512665,491.972565 293.534332,486.150665 293.368591,480.333923 
	C293.246704,476.056061 290.641327,474.727875 286.696686,474.845490 
	C282.793457,474.961823 280.771088,476.897766 280.742737,480.671021 
	C280.661530,491.486053 280.681519,502.302277 280.739746,513.117615 
	C280.760345,516.944885 283.000580,519.042542 286.671875,519.103577 
	C294.988831,519.241821 303.324554,519.368591 311.617950,518.894104 
	C313.344971,518.795288 316.358459,515.941650 316.233002,514.594666 
	C316.042755,512.552124 313.990204,509.778748 312.060455,509.023376 
	C309.435028,507.995697 306.113037,508.925903 303.213440,508.370544 
	C300.283783,507.809418 297.505157,506.459778 294.172211,504.717987 
M452.622040,518.820923 
	C457.237152,516.172058 457.594238,514.653198 455.087830,510.160614 
	C453.565216,507.431549 451.931183,504.650421 451.084381,501.682373 
	C449.319458,495.496094 451.379822,489.947876 454.726532,484.694244 
	C457.393951,480.506989 456.915588,476.817352 453.805817,475.136780 
	C448.588745,472.317322 436.278992,475.499420 432.553345,480.705170 
	C439.801666,490.643677 440.225159,500.738068 433.409027,511.239594 
	C430.823334,515.223328 433.060364,518.972534 437.803375,519.127563 
	C442.456451,519.279785 447.121796,519.055298 452.622040,518.820923 
z"/>
<path fill="#49ab3c" opacity="1.000000" stroke="none"
	d="
M321.002075,85.178543 
	C323.847046,93.169701 326.515228,100.817360 329.601990,108.292183 
	C331.692993,113.355736 334.483063,118.125900 336.757690,123.119644 
	C339.089111,128.238098 338.993713,133.485474 336.588654,138.562714 
	C331.673950,148.937881 326.984283,159.440048 321.573639,169.553802 
	C316.782715,178.509140 316.624969,186.791641 322.116333,195.429840 
	C325.564697,200.854324 328.383301,206.679184 331.865936,213.018951 
	C341.803192,200.069641 351.076477,187.979004 360.357605,175.894363 
	C364.253265,170.821991 366.791443,170.852951 370.133331,176.138000 
	C382.868683,196.278198 393.087921,217.483185 396.541626,241.342728 
	C397.442505,247.566345 397.911804,253.993378 397.456085,260.245117 
	C396.253448,276.743286 385.600189,288.302795 368.595306,293.154846 
	C353.980194,297.325012 339.132446,297.432617 324.545868,294.551697 
	C299.297302,289.565002 275.799377,280.050751 255.460419,263.763184 
	C223.034012,237.795975 203.166672,204.617218 198.907776,162.999222 
	C194.385406,118.806389 207.905289,80.865845 240.362045,50.173901 
	C256.360413,35.045441 275.422363,24.992853 296.267853,18.249134 
	C323.884644,9.314841 352.076813,3.763422 381.238068,6.045137 
	C411.629822,8.423126 441.065887,14.660842 465.738312,33.996643 
	C473.062469,39.736607 478.638245,47.753551 484.765381,54.940086 
	C486.171204,56.588936 486.546539,59.116302 487.973450,62.681942 
	C484.717224,62.140625 482.549408,62.122059 480.645599,61.403763 
	C472.963470,58.505375 465.080048,57.695549 457.076233,59.205429 
	C446.027557,61.289711 441.229614,70.739540 446.618073,80.628792 
	C449.355255,85.652252 453.196106,90.243340 457.215759,94.369720 
	C474.444580,112.056053 491.315491,129.986557 503.725189,151.583496 
	C516.024597,172.988571 523.411316,195.711365 520.941833,220.665924 
	C516.985596,260.644592 496.661194,289.589447 460.816254,307.633179 
	C459.654816,308.217896 458.083313,307.988098 456.702972,308.138000 
	C456.978302,306.830750 456.879303,305.259857 457.586029,304.256439 
	C465.860474,292.507843 467.176056,279.778778 463.411163,266.188141 
	C455.425995,237.363037 441.891846,211.079727 426.481171,185.680191 
	C421.391571,177.291580 415.699982,169.270111 410.466034,160.965836 
	C409.107971,158.811096 408.437592,156.222961 406.973389,152.676132 
	C421.159882,150.619141 434.380219,148.702225 447.626312,146.781586 
	C444.036957,130.367874 431.946686,119.444672 415.723572,117.952164 
	C406.106781,117.067429 396.464569,116.325951 386.817078,115.954048 
	C380.197479,115.698875 375.104279,113.330452 370.897614,108.147026 
	C363.764313,99.357452 356.448730,90.698578 348.834290,82.326248 
	C346.222870,79.454872 342.715027,77.157059 339.218811,75.380104 
	C330.758087,71.079918 322.793182,75.347595 321.002075,85.178543 
z"/>
<path fill="#49ab3c" opacity="1.000000" stroke="none" 
	d="
M371.827881,375.027863 
	C384.728058,383.499451 387.365448,393.679901 379.992920,406.765350 
	C376.368469,413.198364 376.206909,419.341980 380.000427,425.626801 
	C380.601501,426.622620 381.429169,427.532349 381.805725,428.603607 
	C382.949310,431.856842 384.846832,435.230896 384.634613,438.437683 
	C384.495605,440.537384 372.550507,442.066345 370.203857,439.886353 
	C366.402283,436.354828 363.320892,432.030945 360.058197,427.943604 
	C358.417450,425.888153 357.364594,423.276123 355.481445,421.521545 
	C352.502960,418.746368 349.904938,419.585052 348.993469,423.613953 
	C348.424072,426.130951 348.713379,428.873108 348.820190,431.506012 
	C349.075104,437.792450 347.002411,440.230225 340.968140,440.511719 
	C333.099518,440.878784 330.135345,438.817780 330.093597,432.380371 
	C329.983368,415.383270 329.950317,398.383942 330.108978,381.387573 
	C330.187103,373.023407 332.355133,370.939819 340.580597,371.036865 
	C351.010040,371.159851 361.618011,370.136719 371.827881,375.027863 
M353.739960,401.821259 
	C355.713684,401.587158 358.114777,401.970459 359.558685,400.970947 
	C361.608093,399.552307 363.798492,397.332947 364.382660,395.058594 
	C365.097778,392.274658 363.118073,390.099609 359.838776,389.831757 
	C358.687073,389.737671 357.556732,389.402191 356.405792,389.274811 
	C353.217957,388.921844 350.013367,389.360657 349.191925,392.890533 
	C348.373505,396.407471 347.994781,400.378479 353.739960,401.821259 
z"/>
<path fill="#49ab3c" opacity="1.000000" stroke="none" 
	d="
M209.838837,434.248901 
	C207.519348,439.653625 203.272308,441.705414 197.622467,440.536469 
	C192.597900,439.496918 191.166641,437.385132 191.168289,431.003174 
	C191.168549,430.003998 191.209122,429.004425 191.192215,428.005707 
	C190.986786,415.872284 184.070007,410.942352 172.328110,414.458282 
	C168.823410,415.507690 167.065292,417.697540 167.004837,421.330139 
	C166.935532,425.493530 166.899857,429.659180 166.725357,433.818634 
	C166.542999,438.165131 164.383789,440.604736 159.821442,440.520905 
	C158.156250,440.490295 156.489868,440.505676 154.824219,440.521179 
	C150.293381,440.563354 148.116501,438.359741 148.135193,433.796722 
	C148.209564,415.642365 148.185562,397.487518 148.294250,379.333435 
	C148.329590,373.431824 150.968842,371.051056 157.041626,370.992615 
	C163.943588,370.926178 166.758087,373.258392 166.926743,379.311554 
	C167.019516,382.640137 166.585419,386.033173 167.106873,389.281891 
	C167.432251,391.308960 168.625641,394.030029 170.243607,394.868286 
	C176.395294,398.055298 182.949997,397.265686 189.009888,394.529388 
	C190.516006,393.849304 191.439301,390.732422 191.673691,388.628967 
	C192.113525,384.682037 191.527222,380.620361 191.971573,376.674438 
	C192.504532,371.941620 195.686264,370.359314 202.305130,370.886688 
	C207.835236,371.327301 210.058014,373.252502 210.056046,377.960602 
	C210.048248,396.582947 209.966675,415.205292 209.838837,434.248901 
z"/>
<path fill="#49ab3c" opacity="1.000000" stroke="none" 
	d="
M451.380005,439.934509 
	C449.190765,438.190857 446.969208,436.813934 445.642334,434.836609 
	C441.291809,428.353485 431.286072,425.590607 424.594086,429.576874 
	C423.159912,430.431213 422.085236,432.143127 421.232422,433.675568 
	C417.538879,440.312744 408.280914,443.529785 401.880676,439.791229 
	C400.667542,439.082581 399.868561,435.781921 400.419922,434.222137 
	C407.160492,415.152802 414.092499,396.149048 421.198303,377.212097 
	C423.483002,371.123352 428.978912,370.762970 434.529816,370.800201 
	C439.846710,370.835876 443.294464,373.245880 445.087372,378.228577 
	C452.326569,398.347504 459.597290,418.455078 467.383148,440.026276 
	C461.797211,440.026276 456.777313,440.026276 451.380005,439.934509 
z"/>
<path fill="#49ab3c" opacity="1.000000" stroke="none" 
	d="
M41.956112,371.581787 
	C44.199482,373.741272 46.894474,375.428009 47.810474,377.801361 
	C55.619774,398.035370 63.106018,418.394043 70.945747,439.403442 
	C66.102081,439.957886 62.513466,440.730530 58.935051,440.685883 
	C54.547291,440.631134 51.147903,438.585632 48.836670,434.520905 
	C43.728062,425.536499 29.449818,425.545288 24.110205,434.478943 
	C21.751348,438.425507 18.393534,440.500366 13.902418,440.458282 
	C10.282782,440.424377 6.667241,439.953552 2.389996,439.626068 
	C3.369401,436.634827 4.083848,434.140533 4.994923,431.720276 
	C11.539411,414.334961 18.389433,397.058014 24.545443,379.536896 
	C26.584997,373.731964 29.861513,371.219635 35.639339,371.254303 
	C37.620842,371.266174 39.601814,371.367126 41.956112,371.581787 
z"/>
<path fill="#49ab3c" opacity="1.000000" stroke="none" 
	d="
M104.211777,370.249207 
	C114.176804,370.373016 122.112885,373.660492 127.725891,381.744446 
	C129.822647,384.764221 129.910217,387.171417 126.477562,389.188171 
	C125.050224,390.026733 123.686371,390.997406 122.388451,392.027466 
	C119.099945,394.637268 115.898155,394.825867 112.382141,392.310577 
	C109.700439,390.392090 106.795929,388.470520 102.374435,391.675049 
	C104.266373,393.333618 105.733444,395.214691 107.659454,396.182617 
	C111.501442,398.113434 115.671844,399.380280 119.569847,401.212311 
	C128.565323,405.440247 132.620270,412.318848 132.037292,421.916504 
	C131.526932,430.318542 125.644531,437.923859 116.956856,440.458527 
	C104.387756,444.125641 92.913269,442.423981 83.570076,432.361847 
	C80.981186,429.573761 78.618759,426.897858 81.830688,422.888794 
	C86.126343,417.527100 90.583160,415.701263 95.047722,418.070160 
	C96.796753,418.998230 98.336777,420.312561 100.012810,421.387329 
	C104.289658,424.129852 108.393402,424.191223 113.238029,419.609924 
	C110.419914,417.649048 108.036850,415.542969 105.283432,414.191345 
	C102.032471,412.595490 98.400681,411.797455 95.040665,410.397491 
	C85.981178,406.622681 80.914085,398.015564 82.016945,388.558594 
	C83.024040,379.922821 90.068390,372.751678 99.339058,370.959808 
	C100.808273,370.675842 102.299706,370.506927 104.211777,370.249207 
z"/>
<path fill="#49ab3c" opacity="1.000000" stroke="none" 
	d="
M556.975708,370.933838 
	C565.720947,371.215912 574.028992,371.493286 582.333435,371.852478 
	C585.615723,371.994446 587.045471,373.953979 586.991211,377.121368 
	C586.957031,379.119446 586.837463,381.117096 586.845520,383.114594 
	C586.860474,386.813965 584.781555,388.673187 581.371216,388.954163 
	C578.237427,389.212311 575.029297,388.737061 571.925049,389.137207 
	C568.506897,389.577820 565.169922,390.648407 561.797607,391.444580 
	C561.781311,392.231781 561.765015,393.018951 561.748718,393.806152 
	C564.402710,394.671814 567.008850,395.781830 569.728027,396.315002 
	C571.462708,396.655121 573.363708,396.047028 575.191956,396.026550 
	C582.487366,395.944977 585.055054,398.582367 585.002441,405.997772 
	C584.956482,412.470917 582.228027,414.968201 575.154907,414.812592 
	C572.504028,414.754272 569.851196,414.165466 567.214111,414.255554 
	C563.850342,414.370483 561.925964,416.313232 562.379333,419.799561 
	C562.812256,423.127930 565.118042,423.939636 568.206970,423.696960 
	C572.174255,423.385315 576.174988,423.037720 580.136902,423.224304 
	C586.398621,423.519135 587.534607,425.031921 587.079712,431.363464 
	C586.972778,432.852448 586.721130,434.333374 586.487549,435.810303 
	C586.282715,437.105347 586.009827,438.389587 585.680969,440.135284 
	C572.755005,440.135284 559.797974,440.320862 546.862427,439.878082 
	C545.402344,439.828064 543.024841,436.315704 542.862183,434.266846 
	C542.363220,427.980164 542.702942,421.624054 542.774902,415.295593 
	C542.913208,403.136871 543.257263,390.977264 543.158081,378.820953 
	C543.125977,374.889313 544.420471,373.035248 548.247253,372.557312 
	C551.033508,372.209351 553.775452,371.506531 556.975708,370.933838 
z"/>
<path fill="#49ab3c" opacity="1.000000" stroke="none" 
	d="
M714.044556,413.347961 
	C717.538086,426.886719 711.993347,437.144501 699.070801,440.769470 
	C686.899109,444.183838 675.995789,441.712830 667.041565,432.435822 
	C664.555054,429.859680 661.335205,427.345184 664.640381,423.118011 
	C668.859924,417.721222 674.559448,415.719910 678.854675,418.334747 
	C679.842896,418.936371 680.692078,419.761505 681.639221,420.436127 
	C687.317261,424.480316 690.395447,424.341766 696.989807,418.862885 
	C691.501038,416.334106 686.673157,413.768372 681.603149,411.839203 
	C667.436584,406.448761 661.610718,393.556305 668.043457,381.280151 
	C672.819702,372.165405 685.824219,367.295410 696.770935,371.489868 
	C701.732239,373.390839 706.078491,377.115417 710.384277,380.427948 
	C713.029907,382.463318 712.768005,385.248932 710.592468,387.883820 
	C704.769165,394.936920 701.847473,395.349915 694.062256,391.267975 
	C691.672974,390.015259 688.446594,390.358887 685.603577,389.971527 
	C685.321350,390.778442 685.039124,391.585358 684.756897,392.392273 
	C687.420959,393.999451 690.002197,395.769257 692.767578,397.177460 
	C697.473145,399.573700 702.656189,401.220032 706.942505,404.187073 
	C709.890442,406.227753 711.661987,409.967987 714.044556,413.347961 
z"/>
<path fill="#49ab3c" opacity="1.000000" stroke="none" 
	d="
M505.861572,439.122650 
	C500.598907,439.685211 495.631195,440.555359 490.766602,440.159058 
	C488.736450,439.993713 485.895203,437.495911 485.176025,435.444122 
	C478.589722,416.653809 472.352173,397.740540 466.103607,378.833191 
	C464.632660,374.382294 465.953613,372.398193 470.596405,371.335571 
	C479.526886,369.291687 483.227386,371.365723 486.092438,379.941986 
	C489.455566,390.009216 492.857788,400.063446 496.778625,411.714691 
	C500.365143,400.765320 503.610931,391.259216 506.582367,381.668121 
	C509.410583,372.539398 513.350525,369.775635 522.708801,370.895111 
	C527.152954,371.426697 529.064270,373.821289 527.676514,378.106201 
	C521.488831,397.211578 515.128235,416.261261 508.734528,435.298950 
	C508.284637,436.638489 507.061615,437.718414 505.861572,439.122650 
z"/>
<path fill="#49ab3c" opacity="1.000000" stroke="none" 
	d="
M297.430603,415.738007 
	C297.441284,421.038544 297.393890,425.868835 297.488464,430.696320 
	C297.631348,437.989014 295.382019,440.701843 288.947601,440.793671 
	C281.567719,440.899048 278.759918,438.334717 278.734711,431.180176 
	C278.698364,420.852661 278.739594,410.524231 278.842010,400.197113 
	C278.919220,392.417572 277.501251,387.947693 268.553955,389.056183 
	C265.231262,389.467804 263.271484,387.408783 262.928192,384.063507 
	C262.724518,382.079102 262.570862,380.076141 262.597839,378.084229 
	C262.657623,373.674805 265.006439,371.155334 269.382141,371.117859 
	C282.039764,371.009460 294.702545,370.916748 307.355927,371.176361 
	C312.638580,371.284760 315.083282,374.981598 314.736145,380.974915 
	C314.383759,387.058624 312.273895,389.141235 306.463623,389.140472 
	C299.376221,389.139587 297.202911,391.379333 297.341736,398.285309 
	C297.455505,403.944061 297.410614,409.605988 297.430603,415.738007 
z"/>
<path fill="#49ab3c" opacity="1.000000" stroke="none" 
	d="
M398.193787,486.727997 
	C398.994934,489.154053 399.684998,491.197205 400.375031,493.240387 
	C400.750397,493.366699 401.125763,493.493042 401.501129,493.619354 
	C402.427216,490.507050 403.474701,487.424896 404.255737,484.276611 
	C406.311279,475.991333 408.689362,474.117981 415.522797,474.750702 
	C418.930573,475.066223 420.165558,476.945679 419.483704,479.642578 
	C416.514984,491.383759 413.355682,503.080719 410.011383,514.720703 
	C408.938751,518.454041 405.580414,519.445374 402.016174,519.392273 
	C398.177277,519.335205 395.238403,517.732788 393.969269,513.908142 
	C392.562622,509.669128 391.283264,505.387939 389.948486,501.125122 
	C389.482605,501.012451 389.016724,500.899780 388.550873,500.787109 
	C387.317963,504.228912 385.863770,507.610016 384.899872,511.125580 
	C383.095917,517.705139 380.672760,519.566528 374.372833,519.096985 
	C370.744080,518.826538 368.295837,517.088989 367.371185,513.735596 
	C364.065521,501.747070 360.943634,489.707916 357.770142,477.755493 
	C365.212067,473.047882 367.651123,473.701141 371.215302,481.439117 
	C373.115540,485.564667 374.771057,489.802917 376.961243,494.996185 
	C378.645111,489.669250 380.087799,485.311066 381.393677,480.912231 
	C382.546570,477.028656 384.589569,474.408173 389.067383,474.496216 
	C393.483856,474.583069 395.634308,477.052490 396.535858,481.097107 
	C396.931763,482.873138 397.559967,484.597351 398.193787,486.727997 
z"/>
<path fill="#49ab3c" opacity="1.000000" stroke="none" 
	d="
M624.272095,394.571136 
	C624.222412,401.352783 624.121155,407.677612 624.126343,414.002350 
	C624.132507,421.555054 626.233887,423.524689 633.587280,423.185730 
	C635.912903,423.078522 638.247253,423.149475 640.577576,423.155151 
	C649.006714,423.175598 652.880676,429.175781 649.018005,436.813568 
	C648.163879,438.502502 645.537964,440.263397 643.679810,440.316681 
	C633.038269,440.622040 622.381042,440.500824 611.731567,440.353363 
	C607.709900,440.297638 605.730896,437.842499 605.707214,433.892303 
	C605.598389,415.749084 605.406006,397.605072 605.502197,379.462708 
	C605.535400,373.189178 608.973450,370.799774 616.404602,370.992798 
	C621.834412,371.133850 624.171387,373.584839 624.309998,379.634094 
	C624.420593,384.457977 624.290771,389.287323 624.272095,394.571136 
z"/>
<path fill="#49ab3c" opacity="1.000000" stroke="none" 
	d="
M65.942871,500.994751 
	C65.946213,493.832306 65.982239,487.168335 65.939827,480.504883 
	C65.920135,477.410645 66.963852,475.161255 70.377426,475.116119 
	C78.672058,475.006500 86.986473,474.711060 95.258751,475.143707 
	C101.460823,475.468018 104.463020,478.591339 105.714813,484.636688 
	C107.026451,490.971100 106.884171,497.012695 103.393463,502.961395 
	C102.156441,505.069427 102.961067,508.475220 103.121780,511.272003 
	C103.248337,513.474548 104.740967,517.098511 104.012810,517.563477 
	C101.991241,518.854309 98.968140,519.590271 96.641151,519.105042 
	C94.301933,518.617249 92.174057,516.565308 90.248131,514.865173 
	C89.193153,513.933777 89.032936,511.963776 87.959450,511.084412 
	C86.331375,509.750732 84.197899,508.103546 82.397194,508.232910 
	C81.163696,508.321503 79.299736,511.138000 79.164581,512.849304 
	C78.762405,517.941772 75.972412,519.316589 71.493752,519.157776 
	C66.682930,518.987183 65.896034,515.879211 65.948830,511.988739 
	C65.996292,508.490967 65.948967,504.991913 65.942871,500.994751 
M81.046837,486.442902 
	C78.355217,490.279175 78.566849,493.434937 81.633965,495.197723 
	C85.028450,497.148682 90.021500,496.071411 91.651299,493.036469 
	C93.868462,488.907745 92.301514,485.878204 87.577507,485.545258 
	C85.649902,485.409393 83.680351,485.868530 81.046837,486.442902 
z"/>
<path fill="#49ab3c" opacity="1.000000" stroke="none" 
	d="
M672.393921,508.498718 
	C677.113525,508.809509 681.432312,509.402954 685.732666,509.290649 
	C687.549683,509.243164 689.327881,507.710175 691.123718,506.852417 
	C689.419983,505.631500 687.864441,503.750610 685.981567,503.328064 
	C682.145264,502.467102 677.965759,502.961761 674.229248,501.867767 
	C667.711243,499.959381 665.370300,494.435028 666.470947,485.520721 
	C667.337158,478.504944 670.286865,475.362396 677.306580,474.910492 
	C683.603027,474.505096 689.936462,474.548553 696.251465,474.611145 
	C699.472046,474.643036 702.216675,475.631958 702.136108,479.738800 
	C702.062012,483.515930 699.965271,485.053772 696.445679,485.192749 
	C694.135010,485.283997 691.816650,485.329071 689.518738,485.561981 
	C686.648132,485.852936 683.794922,486.315674 680.934265,486.704254 
	C680.817261,487.322723 680.700256,487.941223 680.583313,488.559723 
	C682.488647,489.381378 684.325867,490.482666 686.313477,490.966644 
	C690.489136,491.983429 694.884766,492.252838 698.932495,493.601990 
	C704.823730,495.565582 706.441772,499.237976 705.966370,507.306122 
	C705.579590,513.870972 702.402649,519.305359 697.114319,519.557495 
	C688.211548,519.981934 679.230408,519.345276 670.330017,518.591248 
	C669.041260,518.482056 667.329529,515.356323 667.024048,513.434204 
	C666.501160,510.144073 669.038208,508.869476 672.393921,508.498718 
z"/>
<path fill="#49ab3c" opacity="1.000000" stroke="none" 
	d="
M650.987000,481.491394 
	C650.919006,489.586700 650.949463,497.238647 650.729431,504.883392 
	C650.417297,515.727234 646.279541,520.069458 635.581970,520.449768 
	C630.282898,520.638123 624.942566,520.322693 619.651062,519.876953 
	C614.469116,519.440491 610.295227,515.506226 610.002380,510.073029 
	C609.475037,500.289520 609.462524,490.472198 609.466003,480.669098 
	C609.467407,476.619141 612.016052,474.826599 615.991699,474.806580 
	C620.050720,474.786102 622.233887,476.625183 622.295471,480.763397 
	C622.404297,488.077301 622.471741,495.392029 622.622742,502.705048 
	C622.712158,507.032562 624.934387,509.470123 629.313232,509.809662 
	C634.082275,510.179504 636.757263,507.868317 636.904480,502.774170 
	C637.101257,495.961273 637.069946,489.139465 637.014709,482.322479 
	C636.978577,477.861298 638.524841,474.978485 643.419678,474.594208 
	C648.189270,474.219727 650.599609,476.383881 650.987000,481.491394 
z"/>
<path fill="#49ab3c" opacity="1.000000" stroke="none" 
	d="
M229.418610,502.969025 
	C229.398590,495.655121 229.276031,488.833954 229.390869,482.016815 
	C229.484131,476.480743 231.447235,474.564606 237.025009,474.484070 
	C244.341919,474.378357 251.661591,474.443756 258.979950,474.468414 
	C262.425751,474.480011 265.422882,475.314789 265.637756,479.483398 
	C265.865051,483.891541 262.854584,485.109375 259.208862,485.395172 
	C254.646027,485.752960 250.075180,486.008148 245.507782,486.307587 
	C245.362045,487.026367 245.216309,487.745178 245.070572,488.463959 
	C247.065918,489.245392 249.011215,490.219971 251.070740,490.753937 
	C253.123337,491.286102 255.749130,490.734741 257.284607,491.832245 
	C258.981201,493.044922 260.475952,495.545685 260.597748,497.573181 
	C260.669189,498.762512 258.079895,500.706543 256.351654,501.257233 
	C254.232849,501.932373 251.692322,501.173798 249.464630,501.648071 
	C247.152878,502.140198 244.997070,503.364929 242.773056,504.269257 
	C242.870987,505.063049 242.968918,505.856842 243.066833,506.650635 
	C246.346039,507.165985 249.639130,507.606964 252.900650,508.216888 
	C256.401978,508.871613 260.062286,509.253540 263.260712,510.652130 
	C264.457458,511.175507 265.270172,514.387390 264.898804,516.074158 
	C264.634491,517.274658 262.122314,518.719971 260.569366,518.773132 
	C252.429138,519.052185 244.272079,518.797729 236.126602,518.981812 
	C231.433640,519.087891 229.392181,516.981079 229.442398,512.444763 
	C229.475540,509.451477 229.429352,506.457306 229.418610,502.969025 
z"/>
<path fill="#49ab3c" opacity="1.000000" stroke="none" 
	d="
M544.440247,489.905029 
	C545.971130,487.232880 547.700562,484.761139 548.087097,482.094727 
	C548.922974,476.329315 550.277893,474.704926 555.361938,474.796021 
	C560.423218,474.886719 561.255432,478.085999 561.234863,482.182068 
	C561.184753,492.162598 561.176575,502.143616 561.222595,512.124146 
	C561.242249,516.386047 559.938599,519.161621 555.021118,519.225525 
	C550.258240,519.287415 548.507874,516.723206 548.260864,512.465271 
	C548.174133,510.970764 547.947327,509.469055 548.024475,507.983124 
	C548.291321,502.843475 544.391357,502.573181 541.010315,502.279999 
	C537.591858,501.983612 535.936401,504.292297 535.668396,507.536407 
	C535.532349,509.184235 535.684570,510.854004 535.594543,512.507812 
	C535.377686,516.490845 533.823608,519.179321 529.274048,519.147644 
	C525.093750,519.118469 522.577209,517.350830 522.528625,512.981995 
	C522.408386,502.171265 522.338440,491.359680 522.314697,480.548309 
	C522.305664,476.441559 524.620300,474.552643 528.594543,474.488922 
	C532.412781,474.427765 535.062561,475.841675 535.473572,480.019684 
	C535.554749,480.845398 535.608276,481.674896 535.643372,482.503998 
	C535.951233,489.789673 536.407104,490.200195 544.440247,489.905029 
z"/>
<path fill="#49ab3c" opacity="1.000000" stroke="none" 
	d="
M160.441147,518.798462 
	C155.362534,519.683716 151.779831,518.018616 148.530411,514.580627 
	C143.546661,509.307617 139.065277,509.519836 134.044479,514.750671 
	C129.536163,519.447632 125.957069,520.082336 117.946991,517.475342 
	C122.980362,504.682404 127.642342,491.736328 133.347534,479.267517 
	C134.475281,476.802826 139.509415,475.498383 142.946106,474.959106 
	C144.919205,474.649414 148.593033,476.431732 149.294342,478.165161 
	C154.313354,490.570740 158.809692,503.190155 163.259857,515.816406 
	C163.474686,516.425964 161.696075,517.738220 160.441147,518.798462 
z"/>
<path fill="#49ab3c" opacity="1.000000" stroke="none" 
	d="
M171.489624,478.805603 
	C174.260315,473.159088 181.814301,473.109344 184.650482,478.706970 
	C186.882263,483.111725 188.160080,487.999237 189.871170,492.668793 
	C190.608994,494.682312 191.370804,496.687042 193.378403,499.014526 
	C195.265564,494.166901 197.513184,489.424255 198.961639,484.448914 
	C201.626266,475.295959 205.491806,472.985107 215.465469,475.923645 
	C214.838577,478.367981 214.425568,480.938660 213.524582,483.325134 
	C209.602203,493.714386 205.465088,504.022766 201.564545,514.419983 
	C200.200943,518.054688 197.659851,519.721008 194.016983,519.774231 
	C189.969864,519.833252 186.026245,518.709900 184.488281,514.697327 
	C179.982315,502.941010 175.883270,491.028717 171.489624,478.805603 
z"/>
<path fill="#49ab3c" opacity="1.000000" stroke="none" 
	d="
M470.066772,483.851868 
	C467.797577,476.913422 469.192749,474.852509 475.787323,474.829102 
	C484.440186,474.798370 493.093689,474.870728 501.746063,474.797485 
	C504.937134,474.770477 507.484497,475.504120 507.724731,479.181915 
	C507.952393,482.667908 506.217590,484.615601 502.710358,485.455597 
	C494.812531,487.347168 494.800079,487.458344 494.550659,495.680939 
	C494.374146,501.501495 494.291687,507.325470 494.225983,513.148560 
	C494.183807,516.884888 492.752319,519.251831 488.648682,519.147461 
	C484.823059,519.050171 481.622772,518.128479 481.528442,513.402344 
	C481.405609,507.248474 481.271393,501.094635 481.193939,494.940094 
	C481.095062,487.088135 480.135223,486.016541 472.139984,484.923248 
	C471.514923,484.837769 470.933868,484.430542 470.066772,483.851868 
z"/>
<path fill="#49ab3c" opacity="1.000000" stroke="none" 
	d="
M38.985954,496.212097 
	C38.832088,502.009186 38.727570,507.335297 38.505367,512.656433 
	C38.282681,517.989197 33.639309,518.088989 30.232368,518.790039 
	C26.467068,519.564819 25.466246,516.053406 25.285275,513.277710 
	C24.895956,507.306305 25.026800,501.300659 24.957691,495.308838 
	C24.870348,487.735870 23.902411,486.846802 16.633226,484.816650 
	C15.085763,484.384460 13.232841,481.584808 13.268992,479.913696 
	C13.305401,478.230743 15.464873,475.210510 16.787746,475.158539 
	C26.926283,474.759979 37.094776,474.762360 47.233330,475.162628 
	C48.570179,475.215424 50.750874,478.196808 50.794785,479.867706 
	C50.838791,481.542267 49.014843,484.333649 47.458050,484.801971 
	C39.792694,487.107819 39.145653,487.627167 38.985954,496.212097 
z"/>
<path fill="#49ab3c" opacity="1.000000" stroke="none" 
	d="
M294.416290,505.086792 
	C297.505157,506.459778 300.283783,507.809418 303.213440,508.370544 
	C306.113037,508.925903 309.435028,507.995697 312.060455,509.023376 
	C313.990204,509.778748 316.042755,512.552124 316.233002,514.594666 
	C316.358459,515.941650 313.344971,518.795288 311.617950,518.894104 
	C303.324554,519.368591 294.988831,519.241821 286.671875,519.103577 
	C283.000580,519.042542 280.760345,516.944885 280.739746,513.117615 
	C280.681519,502.302277 280.661530,491.486053 280.742737,480.671021 
	C280.771088,476.897766 282.793457,474.961823 286.696686,474.845490 
	C290.641327,474.727875 293.246704,476.056061 293.368591,480.333923 
	C293.534332,486.150665 293.512665,491.972565 293.655304,497.790192 
	C293.711975,500.102295 293.993225,502.408875 294.416290,505.086792 
z"/>
<path fill="#49ab3c" opacity="1.000000" stroke="none" 
	d="
M452.201904,518.908508 
	C447.121796,519.055298 442.456451,519.279785 437.803375,519.127563 
	C433.060364,518.972534 430.823334,515.223328 433.409027,511.239594 
	C440.225159,500.738068 439.801666,490.643677 432.553345,480.705170 
	C436.278992,475.499420 448.588745,472.317322 453.805817,475.136780 
	C456.915588,476.817352 457.393951,480.506989 454.726532,484.694244 
	C451.379822,489.947876 449.319458,495.496094 451.084381,501.682373 
	C451.931183,504.650421 453.565216,507.431549 455.087830,510.160614 
	C457.594238,514.653198 457.237152,516.172058 452.201904,518.908508 
z"/>
<path fill="#F6F6F6" opacity="1.000000" stroke="none" 
	d="
M353.336609,401.790405 
	C347.994781,400.378479 348.373505,396.407471 349.191925,392.890533 
	C350.013367,389.360657 353.217957,388.921844 356.405792,389.274811 
	C357.556732,389.402191 358.687073,389.737671 359.838776,389.831757 
	C363.118073,390.099609 365.097778,392.274658 364.382660,395.058594 
	C363.798492,397.332947 361.608093,399.552307 359.558685,400.970947 
	C358.114777,401.970459 355.713684,401.587158 353.336609,401.790405 
z"/>
<path fill="#F1F1F1" opacity="1.000000" stroke="none" 
	d="
M81.388367,486.249939 
	C83.680351,485.868530 85.649902,485.409393 87.577507,485.545258 
	C92.301514,485.878204 93.868462,488.907745 91.651299,493.036469 
	C90.021500,496.071411 85.028450,497.148682 81.633965,495.197723 
	C78.566849,493.434937 78.355217,490.279175 81.388367,486.249939 
z"/>
</svg>